<svg width="254" height="124" viewBox="0 0 254 124" fill="none" xmlns="http://www.w3.org/2000/svg">
<path d="M94.8114 53.0436C94.8007 52.5936 94.791 52.1422 94.7824 51.6896C94.7751 51.1928 94.62 50.7094 94.3368 50.3012C94.0536 49.893 93.6551 49.5784 93.1924 49.3976C92.1132 49.001 90.984 48.7567 89.8374 48.6716C89.2773 48.6259 88.7149 48.6145 88.1534 48.6376C88.134 50.3709 88.103 52.0809 88.0604 53.7676C87.8794 60.9796 87.4914 67.6806 86.9424 73.5436H95.9474C95.3794 67.4836 94.9854 60.5306 94.8114 53.0436Z" fill="#49317E"/>
<path d="M88.1524 40.1136C88.714 40.1364 89.2763 40.1248 89.8364 40.0786C90.9831 39.9938 92.1123 39.7494 93.1914 39.3526C93.6542 39.1718 94.0526 38.8572 94.3358 38.449C94.619 38.0407 94.7742 37.5574 94.7815 37.0606C94.7901 36.6073 94.7998 36.1556 94.8105 35.7056C94.9835 28.2186 95.3785 21.2646 95.9455 15.2056H86.9404C87.4894 21.0686 87.8764 27.7696 88.0584 34.9816C88.0991 36.6669 88.1304 38.3776 88.1524 40.1136Z" fill="#49317E"/>
<path d="M62.8388 15.2075H53.8338C54.5588 22.9485 55.0028 32.1485 55.0608 42.0605H7.86982C7.93282 32.2195 8.37482 23.0866 9.09582 15.3936H0.0908203C0.87082 23.7186 1.32482 33.7285 1.32482 44.4935C1.32482 55.2445 0.871818 65.2375 0.0948181 73.5535H9.09483C8.35183 65.6075 7.90682 56.1295 7.86782 45.9225H55.0678C55.0248 56.0575 54.5798 65.4696 53.8418 73.3676H62.8418C62.0648 65.0516 61.6118 55.0585 61.6118 44.3075C61.6048 33.5425 62.0598 23.5325 62.8388 15.2075Z" fill="#49317E"/>
<path d="M162.48 43.7487C169.109 41.4797 172.1 36.7908 171.273 29.4088C169.66 16.4378 155.127 15.4548 150.051 15.5088L125.018 15.5818C125.175 16.3182 125.38 17.0435 125.632 17.7527C125.705 17.9603 125.839 18.1411 126.016 18.271C126.194 18.401 126.407 18.4741 126.626 18.4808L152.766 19.1598H152.815C161.183 19.6378 165.528 27.8518 164.415 33.2218C162.38 43.0278 154.17 42.7448 154.17 42.7448L153.66 42.7568L129.123 41.5157C127.606 41.439 126.148 40.9026 124.943 39.9778C124.195 39.4349 123.564 38.7468 123.087 37.9546C122.611 37.1624 122.298 36.2822 122.169 35.3668L120.403 0.592773H119.077L117.318 35.3668C117.189 36.2821 116.877 37.162 116.401 37.954C115.924 38.7461 115.293 39.434 114.544 39.9768C113.337 40.9037 111.876 41.4411 110.355 41.5178L76.3164 43.2397V44.5658L111.09 46.3248C112.006 46.454 112.886 46.7661 113.678 47.2427C114.47 47.7193 115.158 48.3505 115.7 49.0988L115.724 49.1308C116.632 50.3126 117.158 51.7426 117.233 53.2308L119.077 89.6838H120.403L122.277 52.9587C122.416 51.5497 122.957 50.2102 123.835 49.0998C124.378 48.3515 125.066 47.7202 125.858 47.2437C126.65 46.7671 127.53 46.4549 128.445 46.3258L148.256 45.3258L148.304 45.3398C148.404 45.3278 148.544 45.3158 148.697 45.3038L149.551 45.2608C150.528 45.2343 151.506 45.2573 152.48 45.3298V45.3398H152.565C158.2 45.7658 166.965 48.0267 167.107 57.4297C167.301 70.0518 149.089 69.3768 149.089 69.3768H149.079L126.297 69.4438C126.134 69.4434 125.975 69.5005 125.849 69.6052C125.723 69.7099 125.637 69.8556 125.607 70.0168L125.048 73.0168H151.421V73.0048C162.399 72.8658 175.539 71.2337 175.514 58.1537C175.493 48.6837 167.514 45.0807 162.48 43.7487Z" fill="#49317E"/>
<path d="M225.741 16.5118C237.864 16.5118 248.311 23.0339 253.105 32.4359V21.9158C246.686 16.1858 236.576 12.4868 225.195 12.4868C224.495 12.4868 223.795 12.5048 223.1 12.5328H223.055C217.792 12.5182 212.582 13.5825 207.747 15.6599C188.847 23.0809 187.93 39.3538 187.93 43.8708C187.93 48.4218 188.373 62.5448 207.045 71.7608C213.756 74.6038 237.022 81.7848 253.104 65.7788V55.5888C248.309 64.9888 237.863 71.5128 225.74 71.5128C209.079 71.5128 195.573 59.2008 195.573 44.0128C195.573 28.8248 209.08 16.5118 225.741 16.5118Z" fill="#49317E"/>
<path d="M91.231 120.815H94.74V119.453H91.227V117.873H95.127V116.512H89.587V123.788H95.24V122.427H91.228L91.231 120.815ZM84.797 119.931C85.1629 119.852 85.4899 119.648 85.722 119.355C85.9455 119.061 86.0626 118.7 86.054 118.331C86.0577 118.068 85.995 117.809 85.872 117.577C85.746 117.346 85.568 117.149 85.352 117C85.1042 116.83 84.8277 116.707 84.536 116.637C84.1824 116.549 83.8192 116.507 83.455 116.512H80.11V123.788H83.571C84.2812 123.828 84.9856 123.64 85.582 123.253C85.8179 123.086 86.0085 122.864 86.1365 122.605C86.2645 122.347 86.3259 122.06 86.315 121.772C86.3341 121.332 86.1896 120.9 85.9093 120.56C85.6289 120.22 85.2327 119.997 84.797 119.932V119.931ZM81.752 117.853H83.373C83.6327 117.837 83.8904 117.907 84.106 118.053C84.1936 118.12 84.2635 118.208 84.3096 118.309C84.3558 118.409 84.3768 118.519 84.371 118.63C84.3773 118.744 84.3565 118.857 84.3105 118.961C84.2644 119.066 84.1943 119.158 84.106 119.23C83.8934 119.383 83.6346 119.458 83.373 119.443H81.752V117.853ZM84.293 122.218C84.0168 122.386 83.6958 122.466 83.373 122.447H81.752V120.711H83.373C83.6958 120.692 84.0168 120.771 84.293 120.94C84.3962 121.007 84.4804 121.1 84.5377 121.209C84.5949 121.318 84.6232 121.44 84.62 121.563C84.6261 121.691 84.5993 121.818 84.5423 121.933C84.4852 122.047 84.3997 122.145 84.294 122.218H84.293ZM96.207 106.518L90.465 99.3807H89.34V108.951H90.707V101.814L96.449 108.951H97.57V99.3797H96.203L96.207 106.518ZM163.607 106.559H168.693L169.746 108.952H171.182L166.84 99.3797H165.486L161.152 108.95H162.56L163.607 106.559ZM166.15 100.776L168.214 105.465H164.085L166.15 100.776ZM6.861 103.496H1.361V99.3797H0V108.95H1.367V104.685H6.867V108.95H8.234V99.3797H6.867L6.861 103.496ZM81.686 99.3807H80.319V108.951H81.686V99.3807ZM100.94 116.512L97.78 123.788H99.474L100.046 122.374H103.413L103.985 123.788H105.74L102.632 116.512H100.94ZM100.586 121.054L101.74 118.227L102.883 121.054H100.586ZM191.086 99.3847H189.719V108.955H191.086V99.3847ZM53.48 99.9117C52.6754 99.494 51.7821 99.2759 50.8755 99.2759C49.9689 99.2759 49.0756 99.494 48.271 99.9117C47.5133 100.319 46.8821 100.927 46.446 101.669C46.0122 102.43 45.7841 103.292 45.7841 104.169C45.7841 105.045 46.0122 105.907 46.446 106.669C46.8822 107.41 47.5134 108.017 48.271 108.425C49.0756 108.842 49.9689 109.06 50.8755 109.06C51.7821 109.06 52.6754 108.842 53.48 108.425C54.2352 108.019 54.8642 107.414 55.298 106.675C55.7283 105.908 55.9543 105.044 55.9543 104.166C55.9543 103.287 55.7283 102.423 55.298 101.657C54.8647 100.92 54.2372 100.316 53.484 99.9107L53.48 99.9117ZM54.102 106.05C53.7876 106.601 53.3293 107.057 52.776 107.369C52.1979 107.692 51.5445 107.858 50.882 107.848C50.2155 107.856 49.5583 107.691 48.975 107.369C48.4156 107.06 47.952 106.604 47.635 106.05C47.3167 105.474 47.1497 104.828 47.1497 104.17C47.1497 103.513 47.3167 102.866 47.635 102.291C47.9522 101.736 48.4158 101.28 48.975 100.972C49.5583 100.649 50.2155 100.484 50.882 100.493C51.5445 100.483 52.1979 100.648 52.776 100.972C53.3291 101.283 53.7874 101.739 54.102 102.291C54.4202 102.866 54.5872 103.513 54.5872 104.17C54.5872 104.828 54.4202 105.474 54.102 106.05ZM62.831 108.956H64.198V99.3797H62.84L62.831 108.956ZM37.54 106.521L31.8 99.3797H30.679V108.95H32.046V101.813L37.788 108.95H38.909V99.3797H37.54V106.521ZM18.771 99.3797L14.437 108.95H15.845L16.898 106.557H21.984L23.037 108.95H24.472L20.124 99.3797H18.771ZM17.377 105.464L19.44 100.78L21.504 105.469L17.377 105.464ZM119.409 104.671H124.209V103.509H119.409V100.57H124.796V99.3797H118.04V108.95H124.985V107.761H119.407L119.409 104.671ZM175.532 100.571H178.813V108.952H180.166V100.571H183.447V99.3797H175.531L175.532 100.571ZM205.665 99.9077C204.86 99.49 203.967 99.272 203.061 99.272C202.154 99.272 201.261 99.49 200.456 99.9077C199.698 100.315 199.067 100.923 198.631 101.665C198.197 102.426 197.969 103.288 197.969 104.165C197.969 105.041 198.197 105.903 198.631 106.665C199.067 107.406 199.698 108.013 200.456 108.421C201.261 108.838 202.154 109.056 203.061 109.056C203.967 109.056 204.86 108.838 205.665 108.421C206.42 108.016 207.049 107.41 207.483 106.671C207.913 105.905 208.139 105.04 208.139 104.162C208.139 103.283 207.913 102.419 207.483 101.653C207.048 100.916 206.419 100.314 205.664 99.9107L205.665 99.9077ZM206.287 106.046C205.972 106.597 205.514 107.053 204.961 107.365C204.383 107.688 203.729 107.854 203.067 107.844C202.401 107.852 201.743 107.687 201.16 107.365C200.601 107.056 200.137 106.6 199.82 106.046C199.502 105.47 199.335 104.824 199.335 104.166C199.335 103.509 199.502 102.862 199.82 102.287C200.137 101.732 200.601 101.276 201.16 100.968C201.743 100.645 202.401 100.48 203.067 100.489C203.729 100.479 204.383 100.644 204.961 100.968C205.514 101.279 205.972 101.735 206.287 102.287C206.605 102.862 206.772 103.509 206.772 104.166C206.772 104.824 206.605 105.47 206.287 106.046ZM191.987 120.474C192.229 120.034 192.35 119.537 192.335 119.035C192.356 118.684 192.297 118.334 192.163 118.01C192.029 117.686 191.823 117.396 191.56 117.164C190.925 116.689 190.142 116.457 189.351 116.509H186.191V123.785H187.833V121.706H189.507L190.661 123.785H192.522L190.973 121.385C191.396 121.195 191.749 120.879 191.985 120.48L191.987 120.474ZM190.407 120.022C190.104 120.248 189.73 120.358 189.352 120.334H187.834V117.87H189.352C189.728 117.845 190.1 117.951 190.407 118.17C190.535 118.284 190.634 118.425 190.698 118.584C190.762 118.743 190.789 118.914 190.776 119.085C190.789 119.259 190.763 119.434 190.699 119.597C190.635 119.76 190.535 119.906 190.406 120.025L190.407 120.022ZM178.812 120.812H182.325V119.45H178.812V117.87H182.712V116.509H177.172V123.785H182.826V122.424H178.814L178.812 120.812ZM233.787 99.3797L229.453 108.95H230.861L231.914 106.557H237L238.053 108.95H239.489L235.14 99.3797H233.787ZM232.392 105.464L234.457 100.775L236.521 105.464H232.392ZM247.062 107.764V99.3797H245.695V108.95H252.24V107.761L247.062 107.764ZM221.879 106.519L216.14 99.3797H215.019V108.95H216.386V101.813L222.128 108.95H223.249V99.3797H221.882L221.879 106.519ZM168.126 117.903H170.34V123.786H171.982V117.903H174.206V116.51H168.125L168.126 117.903ZM129.357 119.78L127.496 116.516H125.84L128.54 121.48V123.787H130.182V121.438L132.833 116.511H131.18L129.357 119.78ZM108.486 108.959V100.578H111.767V99.3797H103.85V100.57H107.131V108.951L108.486 108.959ZM137.606 105.746C138.233 105.543 138.78 105.146 139.165 104.611C139.541 104.055 139.732 103.394 139.712 102.724C139.734 102.261 139.649 101.8 139.464 101.376C139.279 100.951 138.999 100.575 138.645 100.277C137.806 99.6429 136.769 99.3278 135.719 99.3877H131.987V108.958H133.354V106.046H135.719C135.865 106.046 136.066 106.037 136.319 106.019L138.384 108.958H139.874L137.606 105.746ZM135.679 104.885H133.355V100.578H135.679C136.383 100.53 137.083 100.725 137.661 101.131C137.878 101.336 138.05 101.584 138.168 101.858C138.286 102.133 138.347 102.428 138.347 102.727C138.347 103.025 138.286 103.321 138.168 103.595C138.05 103.87 137.878 104.117 137.661 104.323C137.084 104.732 136.384 104.929 135.678 104.88L135.679 104.885ZM163.605 121.193L160.071 116.516H158.571V123.792H160.14V119.125L163.663 123.792H165.163V116.516H163.604L163.605 121.193ZM113.163 120.746C113.176 120.971 113.144 121.196 113.068 121.409C112.992 121.622 112.875 121.817 112.722 121.983C112.566 122.134 112.381 122.252 112.178 122.329C111.975 122.406 111.759 122.44 111.542 122.43C111.318 122.444 111.094 122.411 110.884 122.331C110.674 122.251 110.484 122.127 110.326 121.967C110.168 121.808 110.047 121.616 109.97 121.405C109.893 121.194 109.862 120.969 109.879 120.746V116.516H108.24V120.746C108.234 121.188 108.313 121.628 108.474 122.04C108.621 122.412 108.848 122.747 109.139 123.022C109.439 123.299 109.793 123.512 110.179 123.646C111.063 123.937 112.018 123.937 112.902 123.646C113.286 123.513 113.636 123.301 113.931 123.022C114.216 122.745 114.438 122.41 114.581 122.04C114.739 121.627 114.816 121.188 114.81 120.746V116.516H113.168L113.163 120.746ZM117.633 117.908H119.847V123.791H121.489V117.908H123.713V116.515H117.633V117.908ZM144.633 122.138C144.32 122.286 143.979 122.363 143.633 122.366C143.333 122.368 143.037 122.31 142.76 122.195C142.498 122.085 142.26 121.924 142.06 121.722C141.86 121.517 141.701 121.275 141.593 121.01C141.477 120.728 141.418 120.426 141.421 120.121C141.415 119.527 141.645 118.954 142.06 118.53C142.26 118.327 142.498 118.166 142.76 118.057C143.061 117.93 143.387 117.872 143.713 117.887C144.039 117.901 144.358 117.988 144.647 118.14C144.983 118.309 145.281 118.544 145.525 118.831L146.481 117.667C146.299 117.479 146.098 117.312 145.881 117.167C145.658 117.017 145.422 116.89 145.174 116.788C144.926 116.684 144.668 116.604 144.405 116.549C144.145 116.494 143.881 116.466 143.615 116.466C143.089 116.46 142.567 116.555 142.076 116.746C141.621 116.922 141.205 117.185 140.85 117.52C140.494 117.857 140.212 118.265 140.02 118.716C139.829 119.168 139.733 119.654 139.738 120.145C139.734 120.65 139.833 121.15 140.029 121.616C140.215 122.058 140.487 122.459 140.829 122.796C141.177 123.134 141.589 123.401 142.04 123.581C142.521 123.774 143.034 123.871 143.552 123.867C144.098 123.864 144.637 123.743 145.132 123.514C145.641 123.285 146.103 122.965 146.494 122.568L145.527 121.518C145.27 121.775 144.97 121.983 144.64 122.135L144.633 122.138ZM151.191 120.818H154.704V119.456H151.191V117.876H155.091V116.515H149.551V123.791H155.205V122.43H151.193L151.191 120.818ZM154.939 108.958V99.3797H153.572V106.517L147.829 99.3797H146.708V108.95H148.075V101.813L153.817 108.95L154.939 108.958Z" fill="#7D7D7D"/>
</svg>
